<svg xmlns="http://www.w3.org/2000/svg" viewBox="0 0 200 200" width="200" height="200">
  <!-- Plate -->
  <ellipse cx="100" cy="145" rx="75" ry="12" fill="#D0C8C0" opacity="0.5"/>
  <ellipse cx="100" cy="140" rx="75" ry="12" fill="#E8E0D8"/>
  <ellipse cx="100" cy="138" rx="73" ry="10" fill="#F5F0EC"/>
  <!-- Pasta noodles - layered squiggles -->
  <path d="M40 110 Q55 95 70 110 Q85 125 100 110 Q115 95 130 110 Q145 125 160 110" stroke="#E8C87A" stroke-width="5" fill="none" stroke-linecap="round"/>
  <path d="M35 120 Q50 105 65 120 Q80 135 95 120 Q110 105 125 120 Q140 135 155 120 Q165 112 170 118" stroke="#D4A843" stroke-width="5" fill="none" stroke-linecap="round"/>
  <path d="M40 130 Q58 115 75 130 Q92 145 108 130 Q124 115 140 130 Q152 140 162 128" stroke="#E8C87A" stroke-width="5" fill="none" stroke-linecap="round"/>
  <path d="M45 100 Q60 85 75 100 Q90 115 105 100 Q120 85 135 100 Q148 112 158 105" stroke="#D4A843" stroke-width="4.5" fill="none" stroke-linecap="round"/>
  <path d="M50 90 Q65 75 80 90 Q95 105 110 90 Q125 75 140 90 Q152 100 158 93" stroke="#E8C87A" stroke-width="4" fill="none" stroke-linecap="round"/>
  <!-- Tomato sauce splash -->
  <ellipse cx="100" cy="112" rx="28" ry="18" fill="#C0392B" opacity="0.85"/>
  <ellipse cx="72" cy="120" rx="12" ry="8" fill="#C0392B" opacity="0.7"/>
  <ellipse cx="128" cy="105" rx="10" ry="7" fill="#C0392B" opacity="0.65"/>
  <!-- Meatball 1 -->
  <circle cx="90" cy="108" r="12" fill="#8B4513"/>
  <circle cx="90" cy="108" r="10" fill="#A0522D"/>
  <!-- Meatball 2 -->
  <circle cx="115" cy="115" r="10" fill="#8B4513"/>
  <circle cx="115" cy="115" r="8" fill="#A0522D"/>
  <!-- Herbs / basil -->
  <ellipse cx="100" cy="98" rx="7" ry="4" fill="#27AE60" transform="rotate(-20,100,98)"/>
  <ellipse cx="112" cy="94" rx="6" ry="3.5" fill="#2ECC71" transform="rotate(15,112,94)"/>
  <ellipse cx="88" cy="96" rx="6" ry="3.5" fill="#27AE60" transform="rotate(-30,88,96)"/>
  <!-- Parmesan sprinkles -->
  <ellipse cx="80" cy="118" rx="4" ry="2" fill="#F5E6C8" opacity="0.9" transform="rotate(30,80,118)"/>
  <ellipse cx="120" cy="108" rx="3" ry="1.5" fill="#F5E6C8" opacity="0.9" transform="rotate(-20,120,108)"/>
  <ellipse cx="105" cy="125" rx="3.5" ry="1.5" fill="#F5E6C8" opacity="0.9" transform="rotate(10,105,125)"/>
</svg>
